Coordinates
version=1
nRows=8
nColumns=34
inDegrees=yes

Units are S.I. units (second, meters, Newtons, ...)
If the header above contains a line with 'inDegrees', this indicates whether rotational values are in degrees (yes) or radians (no).

endheader
time	pelvis_tilt	pelvis_list	pelvis_rotation	pelvis_tx	pelvis_ty	pelvis_tz	hip_flexion_r	hip_adduction_r	hip_rotation_r	knee_angle_r	ankle_angle_r	subtalar_angle_r	mtp_angle_r	hip_flexion_l	hip_adduction_l	hip_rotation_l	knee_angle_l	ankle_angle_l	subtalar_angle_l	mtp_angle_l	lumbar_extension	lumbar_bending	lumbar_rotation	arm_flex_r	arm_add_r	arm_rot_r	elbow_flex_r	pro_sup_r	arm_flex_l	arm_add_l	arm_rot_l	elbow_flex_l	pro_sup_l
      1.35000000	     -2.37812614	      5.89028626	      4.12522976	     -0.24269025	      0.90677969	      0.23809320	     11.68161342	     -3.90102094	      0.22701527	    -62.67777946	     -9.43178571	    -10.15444974	     28.19483572	     16.18606374	     10.27207694	     -2.75895784	    -21.39374323	      6.38864268	      2.73499659	      7.22635555	     -3.21582538	     -5.78439784	     -0.65413078	     -3.78657371	    -18.05432160	      9.41600150	     25.67217895	     90.00000000	     -1.64814865	    -15.39379652	     19.41654209	     21.68913267	     90.00000000
      1.36000000	     -2.37381114	      5.74355110	      3.72483188	     -0.23053997	      0.90862634	      0.23839434	     13.67777379	     -3.70814725	      0.59897874	    -63.29317915	     -8.28316712	     -9.35540262	     28.01564449	     14.98197183	      9.98351506	     -2.94247170	    -20.74699725	      6.91606603	      3.16398506	      7.02649557	     -3.23556742	     -5.59204476	     -0.86599692	     -3.92347801	    -17.84567697	      9.42812311	     24.72306345	     90.00000000	     -1.40685944	    -15.43989548	     19.52940942	     22.15962072	     90.00000000
      1.37000000	     -2.37200610	      5.50341150	      3.49855602	     -0.21823797	      0.91038290	      0.23832325	     15.54325557	     -3.50220138	      0.69837586	    -63.53501584	     -7.02301731	     -8.40216827	     27.83828256	     13.75824200	      9.69670792	     -2.79012688	    -20.07886568	      7.46997731	      3.32025897	      6.83589251	     -3.23963687	     -5.27753688	     -1.24469628	     -4.13943830	    -17.68440951	      9.46527922	     23.86541213	     90.00000000	     -1.20293586	    -15.52011284	     19.68740930	     22.82297821	     90.00000000
      1.38000000	     -2.33930765	      5.16221654	      3.29052710	     -0.20589257	      0.91221799	      0.23836379	     17.24416084	     -3.14955156	      0.74304682	    -63.30129097	     -6.15926168	     -8.19538326	     27.78674061	     12.44197061	      9.34704286	     -2.35701170	    -19.27594175	      7.88394557	      3.29765326	      6.81961618	     -3.25960711	     -4.85401105	     -1.55987942	     -4.65038470	    -17.61926846	      9.39461555	     23.66584523	     90.00000000	     -0.96169437	    -15.58173998	     19.69182472	     23.44844452	     90.00000000
      1.39000000	     -2.31581988	      4.95803877	      3.23029819	     -0.19357511	      0.91382214	      0.23803080	     18.86779186	     -3.09189874	      0.59262393	    -62.91854649	     -4.20705302	     -6.43028061	     25.87310624	     11.12739243	      9.22010024	     -1.72019755	    -18.48559549	      8.26987326	      2.65250919	      6.19866541	     -3.27557473	     -4.56278734	     -2.07228767	     -4.80424374	    -17.46691514	      9.72260406	     22.45004600	     90.00000000	     -0.62706963	    -15.70878551	     20.62075750	     23.92989843	     90.00000000
      1.40000000	     -2.29415611	      4.49646706	      3.21859312	     -0.18125568	      0.91529920	      0.23776312	     20.32198010	     -2.75567189	      0.24861251	    -61.97849873	     -3.37919911	     -5.99219403	     25.68418172	      9.90220373	      8.79411297	     -1.15944676	    -17.83744963	      8.78743055	      2.52474727	      6.18134644	     -3.27147161	     -3.98028347	     -2.57277960	     -5.21405924	    -17.38218239	      9.34210769	     21.87269569	     90.00000000	     -0.39788560	    -15.79440549	     20.70725070	     24.70137491	     90.00000000
      1.41000000	     -2.25084983	      4.10452256	      3.25353419	     -0.16891331	      0.91661149	      0.23747883	     21.65965815	     -2.55047264	     -0.18957070	    -60.79987996	     -2.45690533	     -5.29154304	     25.59531968	      8.64459712	      8.43874924	     -0.57188005	    -17.16162446	      9.20731325	      2.20197994	      6.15102538	     -3.30558139	     -3.50213304	     -3.14185533	     -5.63116222	    -17.28796614	      9.00062689	     21.29481346	     90.00000000	     -0.11293775	    -15.93282714	     20.88985387	     25.33904801	     90.00000000
      1.42000000	     -2.35564691	      3.88676636	      3.16446545	     -0.15648999	      0.91754111	      0.23740580	     23.06224125	     -2.43951878	     -0.38299763	    -59.29519433	     -2.04830641	     -5.20373151	     25.56005630	      7.40832522	      8.21352991	     -0.41051576	    -16.21993898	      9.43061751	      2.22666502	      6.16132128	     -3.16721329	     -3.20762206	     -3.58997164	     -6.23494865	    -17.27539077	      8.85271685	     21.29962101	     90.00000000	      0.10002901	    -16.04581538	     20.86401997	     25.97852411	     90.00000000
